<svg width="64" height="64" viewBox="0 0 64 64" fill="none" xmlns="http://www.w3.org/2000/svg">
<g clip-path="url(#clip0_201_5)">
<path d="M64 32C64 14.3269 49.6731 0 32 0C14.3269 0 0 14.3269 0 32C0 49.6731 14.3269 64 32 64C49.6731 64 64 49.6731 64 32Z" fill="#2F4317"/>
<path d="M32.9175 19.0642C33.3761 18.5403 33.8794 18.0585 34.4213 17.6238C35.0288 17.1366 35.8883 17.1364 36.4955 17.6239C37.0873 18.0991 37.6325 18.6311 38.1231 19.2128" stroke="#FEFAE0" stroke-width="1.84767" stroke-linecap="round" stroke-linejoin="round"/>
<path d="M35.8714 21.0074C37.79 19.3373 40.1683 18.3134 42.6713 18.0542C43.5501 17.9632 44.1912 18.7927 43.9996 19.6552C43.5082 21.8671 43.4732 24.156 43.8968 26.3819L44.1384 27.6491C44.3656 28.7452 44.2979 29.8819 43.9422 30.9432C43.5865 32.0045 42.9555 32.9524 42.1136 33.6901C41.2717 34.4278 40.2492 34.9289 39.1503 35.1422C38.0515 35.3555 36.9157 35.2733 35.859 34.9041" stroke="#FEFAE0" stroke-width="1.84767" stroke-linecap="round" stroke-linejoin="round"/>
<path d="M17.7367 14V15.3091" stroke="#FEFAE0" stroke-width="1.84767" stroke-linecap="round" stroke-linejoin="round"/>
<path d="M17.7367 17.9272V19.2363" stroke="#FEFAE0" stroke-width="1.84767" stroke-linecap="round" stroke-linejoin="round"/>
<path d="M15.1184 16.6182H16.4275" stroke="#FEFAE0" stroke-width="1.84767" stroke-linecap="round" stroke-linejoin="round"/>
<path d="M19.0458 16.6182H20.3549" stroke="#FEFAE0" stroke-width="1.84767" stroke-linecap="round" stroke-linejoin="round"/>
<path d="M48.173 38.8728C49.0767 38.8728 49.8093 38.1402 49.8093 37.2365C49.8093 36.3327 49.0767 35.6001 48.173 35.6001C47.2692 35.6001 46.5366 36.3327 46.5366 37.2365C46.5366 38.1402 47.2692 38.8728 48.173 38.8728Z" stroke="#FEFAE0" stroke-width="1.84767" stroke-linecap="round" stroke-linejoin="round"/>
<path d="M27.3348 27.6479C27.0922 28.8199 27.187 30.0367 27.6081 31.157C28.0292 32.2774 28.7594 33.2553 29.714 33.9773C30.6686 34.6992 31.8084 35.1357 33.001 35.2359C34.1937 35.3361 35.3903 35.0961 36.452 34.5435C37.7928 33.8031 38.8216 32.6041 39.3497 31.1664C39.8779 29.7287 39.87 28.1488 39.3274 26.7165C38.2799 23.7914 35.527 18.8071 28.804 18.0818C27.937 17.9883 27.2845 18.8001 27.4736 19.6513C27.965 21.8633 28 24.1522 27.5764 26.3781L27.3348 27.6479Z" stroke="#FEFAE0" stroke-width="1.84767" stroke-linecap="round" stroke-linejoin="round"/>
<path d="M35.4585 35.8147V49.7369" stroke="#FEFAE0" stroke-width="1.84767" stroke-linecap="round" stroke-linejoin="round"/>
<path d="M40.8322 44.5307C40.1184 45.2455 38.9026 45.6618 37.8268 45.9017C36.6708 46.1595 35.6945 45.1832 35.9524 44.0271C36.1923 42.9516 36.6085 41.736 37.3232 41.021C38.0381 40.3058 39.254 39.8897 40.3297 39.65C41.4854 39.3926 42.4612 40.3685 42.2036 41.5242C41.9638 42.5999 41.5475 43.8158 40.8322 44.5307Z" stroke="#FEFAE0" stroke-width="1.84767" stroke-linecap="round" stroke-linejoin="round"/>
<path d="M17.8898 32.7797C18.0911 32.5058 18.3143 32.2497 18.5571 32.0138C19.1111 31.4754 19.9867 31.4743 20.5392 32.0143C20.8153 32.2841 21.0654 32.5806 21.2856 32.9001" stroke="#FEFAE0" stroke-width="1.84767" stroke-linecap="round" stroke-linejoin="round"/>
<path d="M19.7965 34.1134C20.8383 33.2155 22.125 32.665 23.4785 32.5245C23.9573 32.4748 24.3067 32.9267 24.2023 33.3967C23.9345 34.602 23.9154 35.8492 24.146 37.0621L24.2769 37.7527C24.3998 38.3447 24.3648 38.9586 24.1755 39.5328C23.9861 40.107 23.649 40.6213 23.198 41.024C22.747 41.4267 22.198 41.7036 21.6061 41.827C21.0142 41.9505 20.4003 41.916 19.826 41.7271" stroke="#FEFAE0" stroke-width="1.84767" stroke-linecap="round" stroke-linejoin="round"/>
<path d="M15.123 37.7523C14.9906 38.3911 15.0422 39.0544 15.2718 39.6651C15.5014 40.2758 15.8996 40.8088 16.4201 41.2022C16.9405 41.5956 17.562 41.8333 18.2121 41.8875C18.8623 41.9418 19.5145 41.8104 20.093 41.5087C20.8231 41.1051 21.3834 40.4519 21.671 39.6688C21.9587 38.8858 21.9546 38.0252 21.6593 37.245C21.2226 35.8331 20.3345 34.6037 19.1316 33.7452C18.1811 33.067 17.0755 32.65 15.9246 32.5276C15.4465 32.4767 15.0966 32.9276 15.2009 33.3969C15.4686 34.6022 15.4878 35.8494 15.2572 37.0624L15.123 37.7523Z" stroke="#FEFAE0" stroke-width="1.84767" stroke-linecap="round" stroke-linejoin="round"/>
<path d="M19.7003 42.1455V50" stroke="#FEFAE0" stroke-width="1.84767" stroke-linecap="round" stroke-linejoin="round"/>
<path d="M19.7415 47.0669C19.8216 46.3272 20.1065 45.6245 20.5642 45.0378C20.7442 44.858 20.9823 44.713 21.2443 44.5961C22.3256 44.1135 23.4016 45.1902 22.9194 46.2716C22.8025 46.5336 22.6576 46.7717 22.4781 46.9517C21.8144 47.6148 20.3587 47.8026 19.8383 47.8543" stroke="#FEFAE0" stroke-width="1.84767" stroke-linecap="round" stroke-linejoin="round"/>
<path d="M32.2021 32.7795C31.4205 32.5185 30.7409 32.0184 30.2592 31.3499C29.7776 30.6814 29.5185 29.8784 29.5184 29.0544" stroke="#FEFAE0" stroke-width="1.84767" stroke-linecap="round" stroke-linejoin="round"/>
</g>
<defs>
<clipPath id="clip0_201_5">
<rect width="64" height="64" fill="white"/>
</clipPath>
</defs>
</svg>
