<svg width="64" height="64" viewBox="0 0 64 64" fill="none" xmlns="http://www.w3.org/2000/svg">
<rect width="64" height="64" rx="32" fill="#283618"/>
<g clip-path="url(#clip0_101_27)">
<path d="M32.9175 19.0642C33.3761 18.5403 33.8794 18.0585 34.4213 17.6238C35.0288 17.1366 35.8883 17.1364 36.4955 17.6239C37.0873 18.0991 37.6325 18.6311 38.1231 19.2128" stroke="#FEFAE0" stroke-width="1.84767" stroke-linecap="round" stroke-linejoin="round"/>
<path d="M35.8714 21.0075C37.79 19.3374 40.1683 18.3135 42.6713 18.0543C43.5501 17.9633 44.1912 18.7928 43.9996 19.6553C43.5082 21.8672 43.4732 24.1561 43.8968 26.382L44.1384 27.6492C44.3656 28.7453 44.2979 29.882 43.9422 30.9433C43.5865 32.0046 42.9555 32.9525 42.1136 33.6902C41.2717 34.4279 40.2492 34.929 39.1503 35.1423C38.0515 35.3556 36.9157 35.2734 35.859 34.9042" stroke="#FEFAE0" stroke-width="1.84767" stroke-linecap="round" stroke-linejoin="round"/>
<path d="M17.7367 14V15.3091" stroke="#FEFAE0" stroke-width="1.84767" stroke-linecap="round" stroke-linejoin="round"/>
<path d="M17.7367 17.9273V19.2364" stroke="#FEFAE0" stroke-width="1.84767" stroke-linecap="round" stroke-linejoin="round"/>
<path d="M15.1184 16.6182H16.4275" stroke="#FEFAE0" stroke-width="1.84767" stroke-linecap="round" stroke-linejoin="round"/>
<path d="M19.0458 16.6182H20.3549" stroke="#FEFAE0" stroke-width="1.84767" stroke-linecap="round" stroke-linejoin="round"/>
<path d="M48.173 38.8727C49.0767 38.8727 49.8093 38.1401 49.8093 37.2364C49.8093 36.3326 49.0767 35.6 48.173 35.6C47.2692 35.6 46.5366 36.3326 46.5366 37.2364C46.5366 38.1401 47.2692 38.8727 48.173 38.8727Z" stroke="#FEFAE0" stroke-width="1.84767" stroke-linecap="round" stroke-linejoin="round"/>
<path d="M27.3348 27.6479C27.0922 28.8199 27.187 30.0367 27.6081 31.157C28.0292 32.2774 28.7594 33.2553 29.714 33.9773C30.6686 34.6992 31.8084 35.1357 33.001 35.2359C34.1937 35.3361 35.3903 35.0961 36.452 34.5435C37.7928 33.8031 38.8216 32.6041 39.3497 31.1664C39.8779 29.7287 39.87 28.1488 39.3274 26.7165C38.2799 23.7914 35.527 18.8071 28.804 18.0818C27.937 17.9883 27.2845 18.8001 27.4736 19.6513C27.965 21.8633 28 24.1522 27.5764 26.3781L27.3348 27.6479Z" stroke="#FEFAE0" stroke-width="1.84767" stroke-linecap="round" stroke-linejoin="round"/>
<path d="M35.4585 35.8147V49.7369" stroke="#FEFAE0" stroke-width="1.84767" stroke-linecap="round" stroke-linejoin="round"/>
<path d="M40.8322 44.5306C40.1184 45.2454 38.9026 45.6617 37.8268 45.9016C36.6708 46.1594 35.6945 45.1831 35.9524 44.027C36.1923 42.9515 36.6085 41.7359 37.3232 41.0209C38.0381 40.3057 39.254 39.8896 40.3297 39.6499C41.4854 39.3925 42.4612 40.3684 42.2036 41.5241C41.9638 42.5998 41.5475 43.8157 40.8322 44.5306Z" stroke="#FEFAE0" stroke-width="1.84767" stroke-linecap="round" stroke-linejoin="round"/>
<path d="M17.8898 32.7796C18.0911 32.5057 18.3143 32.2496 18.5571 32.0137C19.1111 31.4753 19.9867 31.4742 20.5392 32.0142C20.8153 32.284 21.0654 32.5805 21.2856 32.9" stroke="#FEFAE0" stroke-width="1.84767" stroke-linecap="round" stroke-linejoin="round"/>
<path d="M19.7965 34.1135C20.8383 33.2156 22.125 32.6651 23.4785 32.5246C23.9573 32.4749 24.3067 32.9268 24.2023 33.3968C23.9345 34.6021 23.9154 35.8493 24.146 37.0622L24.2769 37.7528C24.3998 38.3448 24.3648 38.9587 24.1755 39.5329C23.9861 40.1071 23.649 40.6214 23.198 41.0241C22.747 41.4268 22.198 41.7037 21.6061 41.8271C21.0142 41.9506 20.4003 41.9161 19.826 41.7272" stroke="#FEFAE0" stroke-width="1.84767" stroke-linecap="round" stroke-linejoin="round"/>
<path d="M15.123 37.7522C14.9906 38.391 15.0422 39.0543 15.2718 39.665C15.5014 40.2757 15.8996 40.8087 16.4201 41.2021C16.9405 41.5955 17.562 41.8332 18.2121 41.8874C18.8623 41.9417 19.5145 41.8103 20.093 41.5086C20.8231 41.105 21.3834 40.4518 21.671 39.6687C21.9587 38.8857 21.9546 38.0251 21.6593 37.2449C21.2226 35.833 20.3345 34.6036 19.1316 33.7451C18.1811 33.0669 17.0755 32.6499 15.9246 32.5275C15.4465 32.4766 15.0966 32.9275 15.2009 33.3968C15.4686 34.6021 15.4878 35.8493 15.2572 37.0623L15.123 37.7522Z" stroke="#FEFAE0" stroke-width="1.84767" stroke-linecap="round" stroke-linejoin="round"/>
<path d="M19.7003 42.1455V50" stroke="#FEFAE0" stroke-width="1.84767" stroke-linecap="round" stroke-linejoin="round"/>
<path d="M19.7415 47.067C19.8216 46.3273 20.1065 45.6246 20.5642 45.0379C20.7442 44.8581 20.9823 44.7131 21.2443 44.5962C22.3256 44.1136 23.4016 45.1903 22.9194 46.2717C22.8025 46.5337 22.6576 46.7718 22.4781 46.9518C21.8144 47.6149 20.3587 47.8027 19.8383 47.8544" stroke="#FEFAE0" stroke-width="1.84767" stroke-linecap="round" stroke-linejoin="round"/>
<path d="M32.2021 32.7796C31.4205 32.5186 30.7409 32.0185 30.2592 31.35C29.7776 30.6815 29.5185 29.8785 29.5184 29.0545" stroke="#FEFAE0" stroke-width="1.84767" stroke-linecap="round" stroke-linejoin="round"/>
</g>
<defs>
<clipPath id="clip0_101_27">
<rect width="37" height="38" fill="white" transform="translate(14 13)"/>
</clipPath>
</defs>
</svg>
